{
	"asset":{
		"generator":"Khronos glTF Blender I/O v4.0.44",
		"version":"2.0"
	},
	"scene":0,
	"scenes":[
		{
			"extras":{
				"skinify":{
					"connect_mesh":0,
					"connect_parents":0,
					"generate_all":0,
					"thickness":0.800000011920929,
					"finger_thickness":0.25,
					"apply_mod":1,
					"parent_armature":1,
					"sub_level":1
				}
			},
			"name":"Scene",
			"nodes":[
				12
			]
		}
	],
	"nodes":[
		{
			"mesh":0,
			"name":"revolvertetik",
			"rotation":[
				0.9984340071678162,
				6.6687539934662254e-09,
				-1.1902257313067821e-07,
				0.05594140663743019
			],
			"scale":[
				0.037047166377305984,
				0.05992056801915169,
				0.0599205456674099
			],
			"translation":[
				-3.071320753278428e-09,
				0.04219275340437889,
				-0.012881996110081673
			]
		},
		{
			"children":[
				0
			],
			"name":"Bone.001",
			"rotation":[
				0.8697927594184875,
				-1.1763979301804284e-07,
				2.04227605692716e-15,
				0.49341723322868347
			],
			"scale":[
				1,
				0.9999999403953552,
				1.0000001192092896
			],
			"translation":[
				-1.5227685423724324e-07,
				1.6599805355072021,
				0.6386957764625549
			]
		},
		{
			"mesh":1,
			"name":"Revolverclynder",
			"rotation":[
				0.7071066498756409,
				2.2707469314164203e-14,
				1.6289698878528026e-14,
				0.7071068286895752
			],
			"scale":[
				0.18511426448822021,
				0.3552630841732025,
				0.35526299476623535
			],
			"translation":[
				3.828364288451826e-14,
				2.242013692855835,
				-1.282175064086914
			]
		},
		{
			"children":[
				2
			],
			"name":"Bone.003",
			"rotation":[
				-0.705845296382904,
				8.444379773209221e-08,
				8.414328789285719e-08,
				0.7083660960197449
			],
			"scale":[
				1,
				0.9999999403953552,
				0.9999999403953552
			],
			"translation":[
				3.867838316296002e-08,
				0.38080137968063354,
				0.16222882270812988
			]
		},
		{
			"mesh":2,
			"name":"revolverreloadstick",
			"rotation":[
				2.626522466186998e-08,
				-0.7071067690849304,
				-6.801566598824138e-08,
				0.7071067690849304
			],
			"scale":[
				1,
				1.000000238418579,
				1.000000238418579
			],
			"translation":[
				-0.5857285857200623,
				-0.6636366248130798,
				-2.5601964992461035e-08
			]
		},
		{
			"children":[
				4
			],
			"name":"Bone.005",
			"rotation":[
				0.5008904933929443,
				0.49910807609558105,
				0.5008903741836548,
				0.4991079270839691
			],
			"scale":[
				0.9999999403953552,
				0.9999998211860657,
				0.9999999403953552
			],
			"translation":[
				1.210866997780613e-07,
				0.4005284309387207,
				0.5078745484352112
			]
		},
		{
			"mesh":3,
			"name":"Revolverhead",
			"rotation":[
				0.7083660364151001,
				8.414325947114776e-08,
				-8.444375509952806e-08,
				0.705845296382904
			],
			"scale":[
				1,
				1.0000001192092896,
				1.000000238418579
			],
			"translation":[
				-3.7633363092481886e-08,
				-0.1828305423259735,
				-0.15784582495689392
			]
		},
		{
			"children":[
				3,
				5,
				6
			],
			"name":"Bone.002",
			"rotation":[
				-0.28277745842933655,
				-2.2868759685934492e-07,
				-7.407771532958688e-15,
				0.9591855406761169
			],
			"scale":[
				1,
				0.9999998807907104,
				0.9999999403953552
			],
			"translation":[
				-2.72473499762782e-07,
				2.1627609729766846,
				1.1428371667861938
			]
		},
		{
			"mesh":4,
			"name":"revolver click",
			"rotation":[
				0.19602623581886292,
				-5.580038757175675e-15,
				-3.0935096742264537e-14,
				0.9805986285209656
			],
			"scale":[
				0.04037214443087578,
				0.18569998443126678,
				0.1856999546289444
			],
			"translation":[
				-5.590038934030078e-16,
				0.1373676061630249,
				0.06932568550109863
			]
		},
		{
			"children":[
				8
			],
			"name":"Bone.004",
			"rotation":[
				-0.46373826265335083,
				-1.0561606700321136e-07,
				-5.528188751213747e-08,
				0.885972261428833
			],
			"scale":[
				1,
				0.9999999403953552,
				0.9999999403953552
			],
			"translation":[
				-3.5129787079313246e-08,
				1.8602957725524902,
				0.14734506607055664
			]
		},
		{
			"mesh":5,
			"name":"Revolverbody",
			"rotation":[
				-0.2810673415660858,
				-1.1440371139315175e-07,
				-3.350584165673354e-08,
				0.9596880674362183
			],
			"scale":[
				0.18511426448822021,
				0.35526296496391296,
				0.3552629053592682
			],
			"translation":[
				2.945274779619922e-08,
				0.2815650701522827,
				-0.12353384494781494
			]
		},
		{
			"children":[
				1,
				7,
				9,
				10
			],
			"name":"Bone",
			"rotation":[
				0.2810673415660858,
				1.1440371139315175e-07,
				3.350583810401986e-08,
				0.9596880674362183
			],
			"scale":[
				1,
				0.9999999403953552,
				0.9999997615814209
			]
		},
		{
			"children":[
				11
			],
			"name":"Armature",
			"translation":[
				0,
				-1.0211269855499268,
				-1.9718316793441772
			]
		}
	],
	"materials":[
		{
			"doubleSided":true,
			"name":"revhed",
			"pbrMetallicRoughness":{
				"baseColorFactor":[
					0.3773225247859955,
					0.3773225247859955,
					0.3773225247859955,
					1
				],
				"metallicFactor":0,
				"roughnessFactor":0.5
			}
		},
		{
			"doubleSided":true,
			"name":"revbod",
			"pbrMetallicRoughness":{
				"baseColorFactor":[
					0.07075303792953491,
					0.01114697940647602,
					0.00024094183754641563,
					1
				],
				"metallicFactor":0,
				"roughnessFactor":0.5
			}
		}
	],
	"meshes":[
		{
			"name":"Cube.005",
			"primitives":[
				{
					"attributes":{
						"POSITION":0,
						"NORMAL":1,
						"TEXCOORD_0":2,
						"TANGENT":3
					},
					"indices":4,
					"material":0
				}
			]
		},
		{
			"name":"Cube.002",
			"primitives":[
				{
					"attributes":{
						"POSITION":5,
						"NORMAL":6,
						"TEXCOORD_0":7
					},
					"indices":8,
					"material":0
				},
				{
					"attributes":{
						"POSITION":9,
						"NORMAL":10,
						"TEXCOORD_0":11
					},
					"indices":12,
					"material":0
				}
			]
		},
		{
			"name":"Cylinder.001",
			"primitives":[
				{
					"attributes":{
						"POSITION":13,
						"NORMAL":14,
						"TEXCOORD_0":15
					},
					"indices":16
				}
			]
		},
		{
			"name":"Cylinder",
			"primitives":[
				{
					"attributes":{
						"POSITION":17,
						"NORMAL":18,
						"TEXCOORD_0":19
					},
					"indices":20,
					"material":0
				}
			]
		},
		{
			"name":"Cube.006",
			"primitives":[
				{
					"attributes":{
						"POSITION":21,
						"NORMAL":22,
						"TEXCOORD_0":23,
						"TANGENT":24
					},
					"indices":25,
					"material":0
				}
			]
		},
		{
			"name":"Cube.001",
			"primitives":[
				{
					"attributes":{
						"POSITION":26,
						"NORMAL":27,
						"TEXCOORD_0":28
					},
					"indices":29,
					"material":0
				},
				{
					"attributes":{
						"POSITION":30,
						"NORMAL":31,
						"TEXCOORD_0":32
					},
					"indices":33,
					"material":1
				}
			]
		}
	],
	"skins":[
		{
			"inverseBindMatrices":34,
			"joints":[
				11,
				1,
				7,
				3,
				5,
				9
			],
			"name":"Armature"
		}
	],
	"accessors":[
		{
			"bufferView":0,
			"componentType":5126,
			"count":54,
			"max":[
				1,
				1,
				1
			],
			"min":[
				-1,
				-6.825118064880371,
				-1.696031093597412
			],
			"type":"VEC3"
		},
		{
			"bufferView":1,
			"componentType":5126,
			"count":54,
			"type":"VEC3"
		},
		{
			"bufferView":2,
			"componentType":5126,
			"count":54,
			"type":"VEC2"
		},
		{
			"bufferView":3,
			"componentType":5126,
			"count":54,
			"type":"VEC4"
		},
		{
			"bufferView":4,
			"componentType":5123,
			"count":126,
			"type":"SCALAR"
		},
		{
			"bufferView":5,
			"componentType":5126,
			"count":1007,
			"max":[
				1.5965771675109863,
				4.434024810791016,
				5.507368564605713
			],
			"min":[
				-1.5965771675109863,
				2.7701921463012695,
				4.164557456970215
			],
			"type":"VEC3"
		},
		{
			"bufferView":6,
			"componentType":5126,
			"count":1007,
			"type":"VEC3"
		},
		{
			"bufferView":7,
			"componentType":5126,
			"count":1007,
			"type":"VEC2"
		},
		{
			"bufferView":8,
			"componentType":5123,
			"count":2979,
			"type":"SCALAR"
		},
		{
			"bufferView":9,
			"componentType":5126,
			"count":665,
			"max":[
				1.4090542793273926,
				4.253377914428711,
				5.383390426635742
			],
			"min":[
				-1.3576107025146484,
				2.91190767288208,
				4.2492780685424805
			],
			"type":"VEC3"
		},
		{
			"bufferView":10,
			"componentType":5126,
			"count":665,
			"type":"VEC3"
		},
		{
			"bufferView":11,
			"componentType":5126,
			"count":665,
			"type":"VEC2"
		},
		{
			"bufferView":12,
			"componentType":5123,
			"count":1947,
			"type":"SCALAR"
		},
		{
			"bufferView":13,
			"componentType":5126,
			"count":288,
			"max":[
				0.06348755955696106,
				1.6928644180297852,
				-0.5189674496650696
			],
			"min":[
				-0.06348763406276703,
				0.8428037166595459,
				-0.6459426283836365
			],
			"type":"VEC3"
		},
		{
			"bufferView":14,
			"componentType":5126,
			"count":288,
			"type":"VEC3"
		},
		{
			"bufferView":15,
			"componentType":5126,
			"count":288,
			"type":"VEC2"
		},
		{
			"bufferView":16,
			"componentType":5123,
			"count":858,
			"type":"SCALAR"
		},
		{
			"bufferView":17,
			"componentType":5126,
			"count":1540,
			"max":[
				0.30133935809135437,
				2.4223885536193848,
				-0.07922665774822235
			],
			"min":[
				-0.30133935809135437,
				-0.6593198180198669,
				-1.0618617534637451
			],
			"type":"VEC3"
		},
		{
			"bufferView":18,
			"componentType":5126,
			"count":1540,
			"type":"VEC3"
		},
		{
			"bufferView":19,
			"componentType":5126,
			"count":1540,
			"type":"VEC2"
		},
		{
			"bufferView":20,
			"componentType":5123,
			"count":4605,
			"type":"SCALAR"
		},
		{
			"bufferView":21,
			"componentType":5126,
			"count":148,
			"max":[
				1,
				2.484943389892578,
				1.4267131090164185
			],
			"min":[
				-1,
				-1,
				-1.4264487028121948
			],
			"type":"VEC3"
		},
		{
			"bufferView":22,
			"componentType":5126,
			"count":148,
			"type":"VEC3"
		},
		{
			"bufferView":23,
			"componentType":5126,
			"count":148,
			"type":"VEC2"
		},
		{
			"bufferView":24,
			"componentType":5126,
			"count":148,
			"type":"VEC4"
		},
		{
			"bufferView":25,
			"componentType":5123,
			"count":276,
			"type":"SCALAR"
		},
		{
			"bufferView":26,
			"componentType":5126,
			"count":683,
			"max":[
				1.6278560161590576,
				4.926410675048828,
				6.348242282867432
			],
			"min":[
				-1.6278560161590576,
				-1.1331545114517212,
				-1.5815749168395996
			],
			"type":"VEC3"
		},
		{
			"bufferView":27,
			"componentType":5126,
			"count":683,
			"type":"VEC3"
		},
		{
			"bufferView":28,
			"componentType":5126,
			"count":683,
			"type":"VEC2"
		},
		{
			"bufferView":29,
			"componentType":5123,
			"count":2088,
			"type":"SCALAR"
		},
		{
			"bufferView":30,
			"componentType":5126,
			"count":104,
			"max":[
				1.0952430963516235,
				2.6922147274017334,
				2.5405919551849365
			],
			"min":[
				-1.1479933261871338,
				-1.0206316709518433,
				-1.4037028551101685
			],
			"type":"VEC3"
		},
		{
			"bufferView":31,
			"componentType":5126,
			"count":104,
			"type":"VEC3"
		},
		{
			"bufferView":32,
			"componentType":5126,
			"count":104,
			"type":"VEC2"
		},
		{
			"bufferView":33,
			"componentType":5123,
			"count":240,
			"type":"SCALAR"
		},
		{
			"bufferView":34,
			"componentType":5126,
			"count":6,
			"type":"MAT4"
		}
	],
	"bufferViews":[
		{
			"buffer":0,
			"byteLength":648,
			"byteOffset":0,
			"target":34962
		},
		{
			"buffer":0,
			"byteLength":648,
			"byteOffset":648,
			"target":34962
		},
		{
			"buffer":0,
			"byteLength":432,
			"byteOffset":1296,
			"target":34962
		},
		{
			"buffer":0,
			"byteLength":864,
			"byteOffset":1728,
			"target":34962
		},
		{
			"buffer":0,
			"byteLength":252,
			"byteOffset":2592,
			"target":34963
		},
		{
			"buffer":0,
			"byteLength":12084,
			"byteOffset":2844,
			"target":34962
		},
		{
			"buffer":0,
			"byteLength":12084,
			"byteOffset":14928,
			"target":34962
		},
		{
			"buffer":0,
			"byteLength":8056,
			"byteOffset":27012,
			"target":34962
		},
		{
			"buffer":0,
			"byteLength":5958,
			"byteOffset":35068,
			"target":34963
		},
		{
			"buffer":0,
			"byteLength":7980,
			"byteOffset":41028,
			"target":34962
		},
		{
			"buffer":0,
			"byteLength":7980,
			"byteOffset":49008,
			"target":34962
		},
		{
			"buffer":0,
			"byteLength":5320,
			"byteOffset":56988,
			"target":34962
		},
		{
			"buffer":0,
			"byteLength":3894,
			"byteOffset":62308,
			"target":34963
		},
		{
			"buffer":0,
			"byteLength":3456,
			"byteOffset":66204,
			"target":34962
		},
		{
			"buffer":0,
			"byteLength":3456,
			"byteOffset":69660,
			"target":34962
		},
		{
			"buffer":0,
			"byteLength":2304,
			"byteOffset":73116,
			"target":34962
		},
		{
			"buffer":0,
			"byteLength":1716,
			"byteOffset":75420,
			"target":34963
		},
		{
			"buffer":0,
			"byteLength":18480,
			"byteOffset":77136,
			"target":34962
		},
		{
			"buffer":0,
			"byteLength":18480,
			"byteOffset":95616,
			"target":34962
		},
		{
			"buffer":0,
			"byteLength":12320,
			"byteOffset":114096,
			"target":34962
		},
		{
			"buffer":0,
			"byteLength":9210,
			"byteOffset":126416,
			"target":34963
		},
		{
			"buffer":0,
			"byteLength":1776,
			"byteOffset":135628,
			"target":34962
		},
		{
			"buffer":0,
			"byteLength":1776,
			"byteOffset":137404,
			"target":34962
		},
		{
			"buffer":0,
			"byteLength":1184,
			"byteOffset":139180,
			"target":34962
		},
		{
			"buffer":0,
			"byteLength":2368,
			"byteOffset":140364,
			"target":34962
		},
		{
			"buffer":0,
			"byteLength":552,
			"byteOffset":142732,
			"target":34963
		},
		{
			"buffer":0,
			"byteLength":8196,
			"byteOffset":143284,
			"target":34962
		},
		{
			"buffer":0,
			"byteLength":8196,
			"byteOffset":151480,
			"target":34962
		},
		{
			"buffer":0,
			"byteLength":5464,
			"byteOffset":159676,
			"target":34962
		},
		{
			"buffer":0,
			"byteLength":4176,
			"byteOffset":165140,
			"target":34963
		},
		{
			"buffer":0,
			"byteLength":1248,
			"byteOffset":169316,
			"target":34962
		},
		{
			"buffer":0,
			"byteLength":1248,
			"byteOffset":170564,
			"target":34962
		},
		{
			"buffer":0,
			"byteLength":832,
			"byteOffset":171812,
			"target":34962
		},
		{
			"buffer":0,
			"byteLength":480,
			"byteOffset":172644,
			"target":34963
		},
		{
			"buffer":0,
			"byteLength":384,
			"byteOffset":173124
		}
	],
	"buffers":[
		{
			"byteLength":173508,
			"uri":"revover-c268ea1aa3220f165add6530a10d42e8.bin"
		}
	]
}
