{
	"asset":{
		"generator":"Khronos glTF Blender I/O v4.0.44",
		"version":"2.0"
	},
	"scene":0,
	"scenes":[
		{
			"extras":{
				"skinify":{
					"connect_mesh":0,
					"connect_parents":0,
					"generate_all":0,
					"thickness":0.800000011920929,
					"finger_thickness":0.25,
					"apply_mod":1,
					"parent_armature":1,
					"sub_level":1
				}
			},
			"name":"Scene",
			"nodes":[
				4
			]
		}
	],
	"nodes":[
		{
			"mesh":0,
			"name":"Table_lambert3_0"
		},
		{
			"children":[
				0
			],
			"name":"Table"
		},
		{
			"children":[
				1
			],
			"name":"RootNode"
		},
		{
			"children":[
				2
			],
			"name":"Table.fbx",
			"rotation":[
				0.70710688829422,
				0,
				0,
				0.7071066498756409
			]
		},
		{
			"children":[
				3
			],
			"name":"Sketchfab_model",
			"rotation":[
				-0.70710688829422,
				0,
				0,
				0.7071066498756409
			],
			"scale":[
				0.0024999999441206455,
				0.002500000176951289,
				0.002500000176951289
			]
		}
	],
	"materials":[
		{
			"doubleSided":true,
			"name":"lambert3",
			"normalTexture":{
				"index":0
			},
			"occlusionTexture":{
				"index":1
			},
			"pbrMetallicRoughness":{
				"baseColorTexture":{
					"index":2
				},
				"metallicRoughnessTexture":{
					"index":1
				}
			}
		}
	],
	"meshes":[
		{
			"name":"Table_lambert3_0",
			"primitives":[
				{
					"attributes":{
						"POSITION":0,
						"NORMAL":1,
						"TEXCOORD_0":2,
						"TANGENT":3
					},
					"indices":4,
					"material":0
				}
			]
		}
	],
	"textures":[
		{
			"sampler":0,
			"source":0
		},
		{
			"sampler":0,
			"source":1
		},
		{
			"sampler":0,
			"source":2
		}
	],
	"images":[
		{
			"mimeType":"image/png",
			"name":"Image_2",
			"uri":"../../clownRoulette/assets/masa/textures/Image_2.png"
		},
		{
			"mimeType":"image/png",
			"name":"Image_1",
			"uri":"../../clownRoulette/assets/masa/textures/Image_1.png"
		},
		{
			"mimeType":"image/png",
			"name":"Image_0",
			"uri":"../../clownRoulette/assets/masa/textures/Image_0.png"
		}
	],
	"accessors":[
		{
			"bufferView":0,
			"componentType":5126,
			"count":2884,
			"max":[
				696.7357177734375,
				539.7628173828125,
				696.7357177734375
			],
			"min":[
				-696.767822265625,
				-0.000976879382506013,
				-696.735595703125
			],
			"type":"VEC3"
		},
		{
			"bufferView":1,
			"componentType":5126,
			"count":2884,
			"type":"VEC3"
		},
		{
			"bufferView":2,
			"componentType":5126,
			"count":2884,
			"type":"VEC2"
		},
		{
			"bufferView":3,
			"componentType":5126,
			"count":2884,
			"type":"VEC4"
		},
		{
			"bufferView":4,
			"componentType":5123,
			"count":8532,
			"type":"SCALAR"
		}
	],
	"bufferViews":[
		{
			"buffer":0,
			"byteLength":34608,
			"byteOffset":0,
			"target":34962
		},
		{
			"buffer":0,
			"byteLength":34608,
			"byteOffset":34608,
			"target":34962
		},
		{
			"buffer":0,
			"byteLength":23072,
			"byteOffset":69216,
			"target":34962
		},
		{
			"buffer":0,
			"byteLength":46144,
			"byteOffset":92288,
			"target":34962
		},
		{
			"buffer":0,
			"byteLength":17064,
			"byteOffset":138432,
			"target":34963
		}
	],
	"samplers":[
		{
			"magFilter":9729,
			"minFilter":9987
		}
	],
	"buffers":[
		{
			"byteLength":155496,
			"uri":"masa-5c56e8764ff9f8fff03594ee7887448a.bin"
		}
	]
}
