{
	"asset":{
		"generator":"Khronos glTF Blender I/O v4.0.44",
		"version":"2.0"
	},
	"scene":0,
	"scenes":[
		{
			"extras":{
				"skinify":{
					"connect_mesh":0,
					"connect_parents":0,
					"generate_all":0,
					"thickness":0.800000011920929,
					"finger_thickness":0.25,
					"apply_mod":1,
					"parent_armature":1,
					"sub_level":1
				}
			},
			"name":"Scene",
			"nodes":[
				4
			]
		}
	],
	"nodes":[
		{
			"mesh":0,
			"name":"Bullet_bullet_0"
		},
		{
			"children":[
				0
			],
			"name":"Bullet"
		},
		{
			"children":[
				1
			],
			"name":"RootNode"
		},
		{
			"children":[
				2
			],
			"name":"Bullet.fbx",
			"rotation":[
				0.70710688829422,
				0,
				0,
				0.7071066498756409
			]
		},
		{
			"children":[
				3
			],
			"name":"Sketchfab_model",
			"rotation":[
				-0.70710688829422,
				0,
				0,
				0.7071066498756409
			]
		}
	],
	"materials":[
		{
			"doubleSided":true,
			"name":"bullet",
			"normalTexture":{
				"index":0
			},
			"occlusionTexture":{
				"index":1
			},
			"pbrMetallicRoughness":{
				"baseColorTexture":{
					"index":2
				},
				"metallicRoughnessTexture":{
					"index":1
				}
			}
		}
	],
	"meshes":[
		{
			"name":"Bullet_bullet_0",
			"primitives":[
				{
					"attributes":{
						"POSITION":0,
						"NORMAL":1,
						"TEXCOORD_0":2,
						"TANGENT":3
					},
					"indices":4,
					"material":0
				}
			]
		}
	],
	"textures":[
		{
			"sampler":0,
			"source":0
		},
		{
			"sampler":0,
			"source":1
		},
		{
			"sampler":0,
			"source":2
		}
	],
	"images":[
		{
			"mimeType":"image/png",
			"name":"Image_2",
			"uri":"../../clownRoulette/assets/mermi/textures/Image_2.png"
		},
		{
			"mimeType":"image/png",
			"name":"Image_1",
			"uri":"../../clownRoulette/assets/mermi/textures/Image_1.png"
		},
		{
			"mimeType":"image/png",
			"name":"Image_0",
			"uri":"../../clownRoulette/assets/mermi/textures/Image_0.png"
		}
	],
	"accessors":[
		{
			"bufferView":0,
			"componentType":5126,
			"count":875,
			"max":[
				1.4576482772827148,
				0.4974486231803894,
				0.49744880199432373
			],
			"min":[
				-1.4576480388641357,
				-0.5021310448646545,
				-0.5033358931541443
			],
			"type":"VEC3"
		},
		{
			"bufferView":1,
			"componentType":5126,
			"count":875,
			"type":"VEC3"
		},
		{
			"bufferView":2,
			"componentType":5126,
			"count":875,
			"type":"VEC2"
		},
		{
			"bufferView":3,
			"componentType":5126,
			"count":875,
			"type":"VEC4"
		},
		{
			"bufferView":4,
			"componentType":5123,
			"count":2397,
			"type":"SCALAR"
		}
	],
	"bufferViews":[
		{
			"buffer":0,
			"byteLength":10500,
			"byteOffset":0,
			"target":34962
		},
		{
			"buffer":0,
			"byteLength":10500,
			"byteOffset":10500,
			"target":34962
		},
		{
			"buffer":0,
			"byteLength":7000,
			"byteOffset":21000,
			"target":34962
		},
		{
			"buffer":0,
			"byteLength":14000,
			"byteOffset":28000,
			"target":34962
		},
		{
			"buffer":0,
			"byteLength":4794,
			"byteOffset":42000,
			"target":34963
		}
	],
	"samplers":[
		{
			"magFilter":9729,
			"minFilter":9987
		}
	],
	"buffers":[
		{
			"byteLength":46796,
			"uri":"mermi-a46cd1ed37278621eb05798dcd1ba654.bin"
		}
	]
}
