{
	"asset":{
		"generator":"Khronos glTF Blender I/O v4.0.44",
		"version":"2.0"
	},
	"scene":0,
	"scenes":[
		{
			"extras":{
				"skinify":{
					"connect_mesh":0,
					"connect_parents":0,
					"generate_all":0,
					"thickness":0.800000011920929,
					"finger_thickness":0.25,
					"apply_mod":1,
					"parent_armature":1,
					"sub_level":1
				}
			},
			"name":"Scene",
			"nodes":[
				0,
				1,
				2,
				3,
				4,
				5
			]
		}
	],
	"nodes":[
		{
			"mesh":0,
			"name":"Circle"
		},
		{
			"mesh":1,
			"name":"open",
			"rotation":[
				0.6833157539367676,
				0.013463865965604782,
				0.009121537208557129,
				0.7299419641494751
			],
			"scale":[
				0.5453433990478516,
				0.5452758073806763,
				0.7967162728309631
			],
			"translation":[
				0,
				0.9201958179473877,
				1.1495016813278198
			]
		},
		{
			"mesh":2,
			"name":"Circle.001",
			"rotation":[
				0.7035453915596008,
				-0.047359079122543335,
				-0.04116172343492508,
				0.7078748345375061
			],
			"scale":[
				0.14127075672149658,
				0.14127075672149658,
				0.14127075672149658
			],
			"translation":[
				-0.7179456949234009,
				1.4221943616867065,
				0
			]
		},
		{
			"mesh":3,
			"name":"Circle.002",
			"rotation":[
				-0.04518083482980728,
				-0.7035220265388489,
				0.7077626585960388,
				0.0456891693174839
			],
			"scale":[
				-0.14127075672149658,
				-0.14127075672149658,
				-0.14127077162265778
			],
			"translation":[
				0.8531367778778076,
				1.3604531288146973,
				-0.014835687354207039
			]
		},
		{
			"mesh":4,
			"name":"Circle.003",
			"rotation":[
				-0.6953730583190918,
				0.11593439429998398,
				-0.11686796694993973,
				0.699540913105011
			],
			"scale":[
				-0.14127075672149658,
				-0.14127075672149658,
				-0.14127075672149658
			],
			"translation":[
				-0.5931492447853088,
				0.692984938621521,
				-0.019361555576324463
			]
		},
		{
			"mesh":5,
			"name":"Circle.004",
			"rotation":[
				-0.6933515071868896,
				-0.12746912240982056,
				0.12800849974155426,
				0.6975880861282349
			],
			"scale":[
				-0.14127075672149658,
				-0.14127075672149658,
				-0.14127075672149658
			],
			"translation":[
				0.5040791630744934,
				0.7448632717132568,
				-0.019361548125743866
			]
		}
	],
	"animations":[
		{
			"channels":[
				{
					"sampler":0,
					"target":{
						"node":1,
						"path":"weights"
					}
				}
			],
			"name":"KeyAction",
			"samplers":[
				{
					"input":35,
					"interpolation":"LINEAR",
					"output":36
				}
			]
		},
		{
			"channels":[
				{
					"sampler":0,
					"target":{
						"node":1,
						"path":"translation"
					}
				},
				{
					"sampler":1,
					"target":{
						"node":1,
						"path":"rotation"
					}
				}
			],
			"name":"perdeanim",
			"samplers":[
				{
					"input":37,
					"interpolation":"STEP",
					"output":38
				},
				{
					"input":37,
					"interpolation":"STEP",
					"output":39
				}
			]
		}
	],
	"materials":[
		{
			"doubleSided":true,
			"name":"sahneduvar",
			"pbrMetallicRoughness":{
				"metallicFactor":0
			}
		},
		{
			"doubleSided":true,
			"name":"sahnefloor",
			"pbrMetallicRoughness":{
				"metallicFactor":0
			}
		},
		{
			"doubleSided":true,
			"name":"sahnedis",
			"pbrMetallicRoughness":{
				"metallicFactor":0
			}
		},
		{
			"doubleSided":true,
			"name":"curtain",
			"pbrMetallicRoughness":{
				"metallicFactor":0
			}
		}
	],
	"meshes":[
		{
			"name":"Circle",
			"primitives":[
				{
					"attributes":{
						"POSITION":0,
						"NORMAL":1,
						"TEXCOORD_0":2,
						"TANGENT":3
					},
					"indices":4,
					"material":0
				},
				{
					"attributes":{
						"POSITION":5,
						"NORMAL":6,
						"TEXCOORD_0":7,
						"TANGENT":8
					},
					"indices":9,
					"material":1
				},
				{
					"attributes":{
						"POSITION":10,
						"NORMAL":11,
						"TEXCOORD_0":12,
						"TANGENT":13
					},
					"indices":14,
					"material":2
				}
			]
		},
		{
			"extras":{
				"targetNames":[
					"Key 1"
				]
			},
			"name":"Plane",
			"primitives":[
				{
					"attributes":{
						"POSITION":15,
						"NORMAL":16,
						"TEXCOORD_0":17,
						"TANGENT":18
					},
					"indices":19,
					"material":3,
					"targets":[
						{
							"POSITION":20,
							"NORMAL":21
						}
					]
				}
			],
			"weights":[
				0
			]
		},
		{
			"name":"Circle.003",
			"primitives":[
				{
					"attributes":{
						"POSITION":22,
						"NORMAL":23,
						"TEXCOORD_0":24
					},
					"indices":25
				}
			]
		},
		{
			"name":"Circle.004",
			"primitives":[
				{
					"attributes":{
						"POSITION":26,
						"NORMAL":27,
						"TEXCOORD_0":28
					},
					"indices":25
				}
			]
		},
		{
			"name":"Circle.005",
			"primitives":[
				{
					"attributes":{
						"POSITION":29,
						"NORMAL":30,
						"TEXCOORD_0":31
					},
					"indices":25
				}
			]
		},
		{
			"name":"Circle.006",
			"primitives":[
				{
					"attributes":{
						"POSITION":32,
						"NORMAL":33,
						"TEXCOORD_0":34
					},
					"indices":25
				}
			]
		}
	],
	"accessors":[
		{
			"bufferView":0,
			"componentType":5126,
			"count":20,
			"max":[
				2.1966922283172607,
				1.968029499053955,
				-0.0017104744911193848
			],
			"min":[
				-2.1966922283172607,
				0.14733563363552094,
				-0.0017104744911193848
			],
			"type":"VEC3"
		},
		{
			"bufferView":1,
			"componentType":5126,
			"count":20,
			"type":"VEC3"
		},
		{
			"bufferView":2,
			"componentType":5126,
			"count":20,
			"type":"VEC2"
		},
		{
			"bufferView":3,
			"componentType":5126,
			"count":20,
			"type":"VEC4"
		},
		{
			"bufferView":4,
			"componentType":5123,
			"count":36,
			"type":"SCALAR"
		},
		{
			"bufferView":5,
			"componentType":5126,
			"count":40,
			"max":[
				2.1966922283172607,
				0.14733563363552094,
				1.1982896327972412
			],
			"min":[
				-2.1966922283172607,
				0.14733563363552094,
				-0.0017104744911193848
			],
			"type":"VEC3"
		},
		{
			"bufferView":6,
			"componentType":5126,
			"count":40,
			"type":"VEC3"
		},
		{
			"bufferView":7,
			"componentType":5126,
			"count":40,
			"type":"VEC2"
		},
		{
			"bufferView":8,
			"componentType":5126,
			"count":40,
			"type":"VEC4"
		},
		{
			"bufferView":9,
			"componentType":5123,
			"count":120,
			"type":"SCALAR"
		},
		{
			"bufferView":10,
			"componentType":5126,
			"count":144,
			"max":[
				2.1966922283172607,
				1.968029499053955,
				1.1982896327972412
			],
			"min":[
				-2.1966922283172607,
				0,
				-0.0017104744911193848
			],
			"type":"VEC3"
		},
		{
			"bufferView":11,
			"componentType":5126,
			"count":144,
			"type":"VEC3"
		},
		{
			"bufferView":12,
			"componentType":5126,
			"count":144,
			"type":"VEC2"
		},
		{
			"bufferView":13,
			"componentType":5126,
			"count":144,
			"type":"VEC4"
		},
		{
			"bufferView":14,
			"componentType":5123,
			"count":348,
			"type":"SCALAR"
		},
		{
			"bufferView":15,
			"componentType":5126,
			"count":610,
			"max":[
				1.9593961238861084,
				0.2765345871448517,
				1.0432261228561401
			],
			"min":[
				-1.958475112915039,
				-0.7164587378501892,
				-1.0730626583099365
			],
			"type":"VEC3"
		},
		{
			"bufferView":16,
			"componentType":5126,
			"count":610,
			"type":"VEC3"
		},
		{
			"bufferView":17,
			"componentType":5126,
			"count":610,
			"type":"VEC2"
		},
		{
			"bufferView":18,
			"componentType":5126,
			"count":610,
			"type":"VEC4"
		},
		{
			"bufferView":19,
			"componentType":5123,
			"count":3162,
			"type":"SCALAR"
		},
		{
			"bufferView":20,
			"componentType":5126,
			"count":610,
			"max":[
				1.3232678174972534,
				-0.47704440355300903,
				0.006146371364593506
			],
			"min":[
				-1.1931685209274292,
				-1.4321730136871338,
				-0.06854051351547241
			],
			"type":"VEC3"
		},
		{
			"bufferView":21,
			"componentType":5126,
			"count":610,
			"type":"VEC3"
		},
		{
			"bufferView":22,
			"componentType":5126,
			"count":466,
			"max":[
				2.4358279705047607,
				0.3764379322528839,
				2.0879905223846436
			],
			"min":[
				-3.470242500305176,
				0,
				-1.5037912130355835
			],
			"type":"VEC3"
		},
		{
			"bufferView":23,
			"componentType":5126,
			"count":466,
			"type":"VEC3"
		},
		{
			"bufferView":24,
			"componentType":5126,
			"count":466,
			"type":"VEC2"
		},
		{
			"bufferView":25,
			"componentType":5123,
			"count":1536,
			"type":"SCALAR"
		},
		{
			"bufferView":26,
			"componentType":5126,
			"count":466,
			"max":[
				2.4358279705047607,
				0.3764379322528839,
				2.0879905223846436
			],
			"min":[
				-3.470242500305176,
				0,
				-1.5037912130355835
			],
			"type":"VEC3"
		},
		{
			"bufferView":27,
			"componentType":5126,
			"count":466,
			"type":"VEC3"
		},
		{
			"bufferView":28,
			"componentType":5126,
			"count":466,
			"type":"VEC2"
		},
		{
			"bufferView":29,
			"componentType":5126,
			"count":466,
			"max":[
				2.4358279705047607,
				0.3764379322528839,
				2.0879905223846436
			],
			"min":[
				-3.470242500305176,
				0,
				-1.5037912130355835
			],
			"type":"VEC3"
		},
		{
			"bufferView":30,
			"componentType":5126,
			"count":466,
			"type":"VEC3"
		},
		{
			"bufferView":31,
			"componentType":5126,
			"count":466,
			"type":"VEC2"
		},
		{
			"bufferView":32,
			"componentType":5126,
			"count":466,
			"max":[
				2.4358279705047607,
				0.3764379322528839,
				2.0879905223846436
			],
			"min":[
				-3.470242500305176,
				0,
				-1.5037912130355835
			],
			"type":"VEC3"
		},
		{
			"bufferView":33,
			"componentType":5126,
			"count":466,
			"type":"VEC3"
		},
		{
			"bufferView":34,
			"componentType":5126,
			"count":466,
			"type":"VEC2"
		},
		{
			"bufferView":35,
			"componentType":5126,
			"count":20,
			"max":[
				0.8333333333333334
			],
			"min":[
				0.041666666666666664
			],
			"type":"SCALAR"
		},
		{
			"bufferView":36,
			"componentType":5126,
			"count":20,
			"type":"SCALAR"
		},
		{
			"bufferView":37,
			"componentType":5126,
			"count":2,
			"max":[
				0.8333333333333334
			],
			"min":[
				0.041666666666666664
			],
			"type":"SCALAR"
		},
		{
			"bufferView":38,
			"componentType":5126,
			"count":2,
			"type":"VEC3"
		},
		{
			"bufferView":39,
			"componentType":5126,
			"count":2,
			"type":"VEC4"
		}
	],
	"bufferViews":[
		{
			"buffer":0,
			"byteLength":240,
			"byteOffset":0,
			"target":34962
		},
		{
			"buffer":0,
			"byteLength":240,
			"byteOffset":240,
			"target":34962
		},
		{
			"buffer":0,
			"byteLength":160,
			"byteOffset":480,
			"target":34962
		},
		{
			"buffer":0,
			"byteLength":320,
			"byteOffset":640,
			"target":34962
		},
		{
			"buffer":0,
			"byteLength":72,
			"byteOffset":960,
			"target":34963
		},
		{
			"buffer":0,
			"byteLength":480,
			"byteOffset":1032,
			"target":34962
		},
		{
			"buffer":0,
			"byteLength":480,
			"byteOffset":1512,
			"target":34962
		},
		{
			"buffer":0,
			"byteLength":320,
			"byteOffset":1992,
			"target":34962
		},
		{
			"buffer":0,
			"byteLength":640,
			"byteOffset":2312,
			"target":34962
		},
		{
			"buffer":0,
			"byteLength":240,
			"byteOffset":2952,
			"target":34963
		},
		{
			"buffer":0,
			"byteLength":1728,
			"byteOffset":3192,
			"target":34962
		},
		{
			"buffer":0,
			"byteLength":1728,
			"byteOffset":4920,
			"target":34962
		},
		{
			"buffer":0,
			"byteLength":1152,
			"byteOffset":6648,
			"target":34962
		},
		{
			"buffer":0,
			"byteLength":2304,
			"byteOffset":7800,
			"target":34962
		},
		{
			"buffer":0,
			"byteLength":696,
			"byteOffset":10104,
			"target":34963
		},
		{
			"buffer":0,
			"byteLength":7320,
			"byteOffset":10800,
			"target":34962
		},
		{
			"buffer":0,
			"byteLength":7320,
			"byteOffset":18120,
			"target":34962
		},
		{
			"buffer":0,
			"byteLength":4880,
			"byteOffset":25440,
			"target":34962
		},
		{
			"buffer":0,
			"byteLength":9760,
			"byteOffset":30320,
			"target":34962
		},
		{
			"buffer":0,
			"byteLength":6324,
			"byteOffset":40080,
			"target":34963
		},
		{
			"buffer":0,
			"byteLength":7320,
			"byteOffset":46404,
			"target":34962
		},
		{
			"buffer":0,
			"byteLength":7320,
			"byteOffset":53724,
			"target":34962
		},
		{
			"buffer":0,
			"byteLength":5592,
			"byteOffset":61044,
			"target":34962
		},
		{
			"buffer":0,
			"byteLength":5592,
			"byteOffset":66636,
			"target":34962
		},
		{
			"buffer":0,
			"byteLength":3728,
			"byteOffset":72228,
			"target":34962
		},
		{
			"buffer":0,
			"byteLength":3072,
			"byteOffset":75956,
			"target":34963
		},
		{
			"buffer":0,
			"byteLength":5592,
			"byteOffset":79028,
			"target":34962
		},
		{
			"buffer":0,
			"byteLength":5592,
			"byteOffset":84620,
			"target":34962
		},
		{
			"buffer":0,
			"byteLength":3728,
			"byteOffset":90212,
			"target":34962
		},
		{
			"buffer":0,
			"byteLength":5592,
			"byteOffset":93940,
			"target":34962
		},
		{
			"buffer":0,
			"byteLength":5592,
			"byteOffset":99532,
			"target":34962
		},
		{
			"buffer":0,
			"byteLength":3728,
			"byteOffset":105124,
			"target":34962
		},
		{
			"buffer":0,
			"byteLength":5592,
			"byteOffset":108852,
			"target":34962
		},
		{
			"buffer":0,
			"byteLength":5592,
			"byteOffset":114444,
			"target":34962
		},
		{
			"buffer":0,
			"byteLength":3728,
			"byteOffset":120036,
			"target":34962
		},
		{
			"buffer":0,
			"byteLength":80,
			"byteOffset":123764
		},
		{
			"buffer":0,
			"byteLength":80,
			"byteOffset":123844
		},
		{
			"buffer":0,
			"byteLength":8,
			"byteOffset":123924
		},
		{
			"buffer":0,
			"byteLength":24,
			"byteOffset":123932
		},
		{
			"buffer":0,
			"byteLength":32,
			"byteOffset":123956
		}
	],
	"buffers":[
		{
			"byteLength":123988,
			"uri":"sahne-1ad6dd1f4918e1ea0fc300de83b230a8.bin"
		}
	]
}
