{
	"asset":{
		"generator":"Khronos glTF Blender I/O v4.0.44",
		"version":"2.0"
	},
	"scene":0,
	"scenes":[
		{
			"extras":{
				"skinify":{
					"connect_mesh":0,
					"connect_parents":0,
					"generate_all":0,
					"thickness":0.800000011920929,
					"finger_thickness":0.25,
					"apply_mod":1,
					"parent_armature":1,
					"sub_level":1
				}
			},
			"name":"Scene",
			"nodes":[
				3
			]
		}
	],
	"nodes":[
		{
			"mesh":0,
			"name":"Object_3",
			"translation":[
				1.52587890625e-05,
				-1.429261828889139e-05,
				2.9868038836866617e-05
			]
		},
		{
			"children":[
				0
			],
			"name":"Object_2",
			"translation":[
				1.52587890625e-05,
				-1.429261828889139e-05,
				2.9868038836866617e-05
			]
		},
		{
			"children":[
				1
			],
			"name":"chair_low.obj.cleaner.gles",
			"translation":[
				-253.68112182617188,
				910.559326171875,
				-417.56439208984375
			]
		},
		{
			"children":[
				2
			],
			"name":"Sketchfab_model",
			"rotation":[
				-0.7071067690849304,
				0,
				0,
				0.7071068286895752
			],
			"scale":[
				0.001086877891793847,
				0.001086877891793847,
				0.001086877891793847
			]
		}
	],
	"materials":[
		{
			"doubleSided":true,
			"name":"lambert7SG",
			"occlusionTexture":{
				"index":0
			},
			"pbrMetallicRoughness":{}
		}
	],
	"meshes":[
		{
			"name":"Object_0",
			"primitives":[
				{
					"attributes":{
						"POSITION":0,
						"NORMAL":1,
						"TEXCOORD_0":2,
						"TANGENT":3
					},
					"indices":4,
					"material":0
				}
			]
		}
	],
	"textures":[
		{
			"sampler":0,
			"source":0
		}
	],
	"images":[
		{
			"mimeType":"image/png",
			"name":"Image_3",
			"uri":"../../clownRoulette/assets/sandalye/textures/Image_3.png"
		}
	],
	"accessors":[
		{
			"bufferView":0,
			"componentType":5126,
			"count":1101,
			"max":[
				507.3622741699219,
				490.230224609375,
				885.507080078125
			],
			"min":[
				0,
				0,
				0
			],
			"type":"VEC3"
		},
		{
			"bufferView":1,
			"componentType":5126,
			"count":1101,
			"type":"VEC3"
		},
		{
			"bufferView":2,
			"componentType":5126,
			"count":1101,
			"type":"VEC2"
		},
		{
			"bufferView":3,
			"componentType":5126,
			"count":1101,
			"type":"VEC4"
		},
		{
			"bufferView":4,
			"componentType":5123,
			"count":4173,
			"type":"SCALAR"
		}
	],
	"bufferViews":[
		{
			"buffer":0,
			"byteLength":13212,
			"byteOffset":0,
			"target":34962
		},
		{
			"buffer":0,
			"byteLength":13212,
			"byteOffset":13212,
			"target":34962
		},
		{
			"buffer":0,
			"byteLength":8808,
			"byteOffset":26424,
			"target":34962
		},
		{
			"buffer":0,
			"byteLength":17616,
			"byteOffset":35232,
			"target":34962
		},
		{
			"buffer":0,
			"byteLength":8346,
			"byteOffset":52848,
			"target":34963
		}
	],
	"samplers":[
		{
			"magFilter":9729,
			"minFilter":9987
		}
	],
	"buffers":[
		{
			"byteLength":61196,
			"uri":"sandalye-1a55210550e691201f701a1f573e36ec.bin"
		}
	]
}
