{
	"asset":{
		"generator":"Khronos glTF Blender I/O v4.0.44",
		"version":"2.0"
	},
	"scene":0,
	"scenes":[
		{
			"extras":{
				"skinify":{
					"connect_mesh":0,
					"connect_parents":0,
					"generate_all":0,
					"thickness":0.800000011920929,
					"finger_thickness":0.25,
					"apply_mod":1,
					"parent_armature":1,
					"sub_level":1
				}
			},
			"name":"Scene",
			"nodes":[
				15
			]
		}
	],
	"nodes":[
		{
			"mesh":0,
			"name":"Back_low_Mat_Folding_Chair_0"
		},
		{
			"children":[
				0
			],
			"name":"Back_low"
		},
		{
			"mesh":1,
			"name":"Legs_Back_low_Mat_Folding_Chair_0"
		},
		{
			"children":[
				2
			],
			"name":"Legs_Back_low"
		},
		{
			"mesh":2,
			"name":"Legs_Front_low_Mat_Folding_Chair_0"
		},
		{
			"children":[
				4
			],
			"name":"Legs_Front_low"
		},
		{
			"mesh":3,
			"name":"Pivots_low_Mat_Folding_Chair_0"
		},
		{
			"children":[
				6
			],
			"name":"Pivots_low"
		},
		{
			"mesh":4,
			"name":"Seat_low_Mat_Folding_Chair_0"
		},
		{
			"children":[
				8
			],
			"name":"Seat_low"
		},
		{
			"mesh":5,
			"name":"Support_Bars_low_Mat_Folding_Chair_0"
		},
		{
			"children":[
				10
			],
			"name":"Support_Bars_low"
		},
		{
			"children":[
				1,
				3,
				5,
				7,
				9,
				11
			],
			"name":"Folding_Chair_low",
			"rotation":[
				0,
				-0.1131272166967392,
				0,
				0.9935805201530457
			]
		},
		{
			"children":[
				12
			],
			"name":"RootNode"
		},
		{
			"children":[
				13
			],
			"name":"Folding_Chair_Combined_low_1.fbx",
			"rotation":[
				0.70710688829422,
				0,
				0,
				0.7071066498756409
			]
		},
		{
			"children":[
				14
			],
			"name":"Sketchfab_model",
			"rotation":[
				-0.7025614380836487,
				0.08004675060510635,
				0.08004676550626755,
				0.7025613784790039
			],
			"scale":[
				0.05000000074505806,
				0.05000000074505806,
				0.05000000074505806
			]
		}
	],
	"materials":[
		{
			"doubleSided":true,
			"name":"Mat_Folding_Chair",
			"normalTexture":{
				"index":0
			},
			"occlusionTexture":{
				"index":1
			},
			"pbrMetallicRoughness":{
				"baseColorTexture":{
					"index":2
				},
				"metallicRoughnessTexture":{
					"index":1
				}
			}
		}
	],
	"meshes":[
		{
			"name":"Back_low_Mat_Folding_Chair_0",
			"primitives":[
				{
					"attributes":{
						"POSITION":0,
						"NORMAL":1,
						"TEXCOORD_0":2,
						"TANGENT":3
					},
					"indices":4,
					"material":0
				}
			]
		},
		{
			"name":"Legs_Back_low_Mat_Folding_Chair_0",
			"primitives":[
				{
					"attributes":{
						"POSITION":5,
						"NORMAL":6,
						"TEXCOORD_0":7,
						"TANGENT":8
					},
					"indices":9,
					"material":0
				}
			]
		},
		{
			"name":"Legs_Front_low_Mat_Folding_Chair_0",
			"primitives":[
				{
					"attributes":{
						"POSITION":10,
						"NORMAL":11,
						"TEXCOORD_0":12,
						"TANGENT":13
					},
					"indices":14,
					"material":0
				}
			]
		},
		{
			"name":"Pivots_low_Mat_Folding_Chair_0",
			"primitives":[
				{
					"attributes":{
						"POSITION":15,
						"NORMAL":16,
						"TEXCOORD_0":17,
						"TANGENT":18
					},
					"indices":19,
					"material":0
				}
			]
		},
		{
			"name":"Seat_low_Mat_Folding_Chair_0",
			"primitives":[
				{
					"attributes":{
						"POSITION":20,
						"NORMAL":21,
						"TEXCOORD_0":22,
						"TANGENT":23
					},
					"indices":24,
					"material":0
				}
			]
		},
		{
			"name":"Support_Bars_low_Mat_Folding_Chair_0",
			"primitives":[
				{
					"attributes":{
						"POSITION":25,
						"NORMAL":26,
						"TEXCOORD_0":27,
						"TANGENT":28
					},
					"indices":29,
					"material":0
				}
			]
		}
	],
	"textures":[
		{
			"sampler":0,
			"source":0
		},
		{
			"sampler":0,
			"source":1
		},
		{
			"sampler":0,
			"source":2
		}
	],
	"images":[
		{
			"mimeType":"image/png",
			"name":"Image_5",
			"uri":"../../clownRoulette/assets/sandalye/katlanabilir/textures/Image_5.png"
		},
		{
			"mimeType":"image/png",
			"name":"Image_4",
			"uri":"../../clownRoulette/assets/sandalye/katlanabilir/textures/Image_4.png"
		},
		{
			"mimeType":"image/png",
			"name":"Image_3",
			"uri":"../../clownRoulette/assets/sandalye/katlanabilir/textures/Image_3.png"
		}
	],
	"accessors":[
		{
			"bufferView":0,
			"componentType":5126,
			"count":60,
			"max":[
				22.95513916015625,
				77.11019134521484,
				-9.723329544067383
			],
			"min":[
				-22.955142974853516,
				56.438499450683594,
				-21.97913360595703
			],
			"type":"VEC3"
		},
		{
			"bufferView":1,
			"componentType":5126,
			"count":60,
			"type":"VEC3"
		},
		{
			"bufferView":2,
			"componentType":5126,
			"count":60,
			"type":"VEC2"
		},
		{
			"bufferView":3,
			"componentType":5126,
			"count":60,
			"type":"VEC4"
		},
		{
			"bufferView":4,
			"componentType":5123,
			"count":264,
			"type":"SCALAR"
		},
		{
			"bufferView":5,
			"componentType":5126,
			"count":135,
			"max":[
				24.094833374023438,
				51.53528594970703,
				-7.778636932373047
			],
			"min":[
				-24.094831466674805,
				0.2342357635498047,
				-23.1204891204834
			],
			"type":"VEC3"
		},
		{
			"bufferView":6,
			"componentType":5126,
			"count":135,
			"type":"VEC3"
		},
		{
			"bufferView":7,
			"componentType":5126,
			"count":135,
			"type":"VEC2"
		},
		{
			"bufferView":8,
			"componentType":5126,
			"count":135,
			"type":"VEC4"
		},
		{
			"bufferView":9,
			"componentType":5123,
			"count":480,
			"type":"SCALAR"
		},
		{
			"bufferView":10,
			"componentType":5126,
			"count":272,
			"max":[
				24.094829559326172,
				78.21321105957031,
				23.42322540283203
			],
			"min":[
				-24.094831466674805,
				0.03297138214111328,
				-22.567594528198242
			],
			"type":"VEC3"
		},
		{
			"bufferView":11,
			"componentType":5126,
			"count":272,
			"type":"VEC3"
		},
		{
			"bufferView":12,
			"componentType":5126,
			"count":272,
			"type":"VEC2"
		},
		{
			"bufferView":13,
			"componentType":5126,
			"count":272,
			"type":"VEC4"
		},
		{
			"bufferView":14,
			"componentType":5123,
			"count":1248,
			"type":"SCALAR"
		},
		{
			"bufferView":15,
			"componentType":5126,
			"count":80,
			"max":[
				24.016592025756836,
				49.80643081665039,
				-3.108358144760132
			],
			"min":[
				-24.016586303710938,
				45.592472076416016,
				-9.746246337890625
			],
			"type":"VEC3"
		},
		{
			"bufferView":16,
			"componentType":5126,
			"count":80,
			"type":"VEC3"
		},
		{
			"bufferView":17,
			"componentType":5126,
			"count":80,
			"type":"VEC2"
		},
		{
			"bufferView":18,
			"componentType":5126,
			"count":80,
			"type":"VEC4"
		},
		{
			"bufferView":19,
			"componentType":5123,
			"count":264,
			"type":"SCALAR"
		},
		{
			"bufferView":20,
			"componentType":5126,
			"count":356,
			"max":[
				22.09487533569336,
				44.45000076293945,
				21.049610137939453
			],
			"min":[
				-22.09487533569336,
				40.077293395996094,
				-15.587862014770508
			],
			"type":"VEC3"
		},
		{
			"bufferView":21,
			"componentType":5126,
			"count":356,
			"type":"VEC3"
		},
		{
			"bufferView":22,
			"componentType":5126,
			"count":356,
			"type":"VEC2"
		},
		{
			"bufferView":23,
			"componentType":5126,
			"count":356,
			"type":"VEC4"
		},
		{
			"bufferView":24,
			"componentType":5123,
			"count":1422,
			"type":"SCALAR"
		},
		{
			"bufferView":25,
			"componentType":5126,
			"count":54,
			"max":[
				22.903167724609375,
				28.616207122802734,
				13.060492515563965
			],
			"min":[
				-22.903167724609375,
				17.370590209960938,
				-17.95516586303711
			],
			"type":"VEC3"
		},
		{
			"bufferView":26,
			"componentType":5126,
			"count":54,
			"type":"VEC3"
		},
		{
			"bufferView":27,
			"componentType":5126,
			"count":54,
			"type":"VEC2"
		},
		{
			"bufferView":28,
			"componentType":5126,
			"count":54,
			"type":"VEC4"
		},
		{
			"bufferView":29,
			"componentType":5123,
			"count":144,
			"type":"SCALAR"
		}
	],
	"bufferViews":[
		{
			"buffer":0,
			"byteLength":720,
			"byteOffset":0,
			"target":34962
		},
		{
			"buffer":0,
			"byteLength":720,
			"byteOffset":720,
			"target":34962
		},
		{
			"buffer":0,
			"byteLength":480,
			"byteOffset":1440,
			"target":34962
		},
		{
			"buffer":0,
			"byteLength":960,
			"byteOffset":1920,
			"target":34962
		},
		{
			"buffer":0,
			"byteLength":528,
			"byteOffset":2880,
			"target":34963
		},
		{
			"buffer":0,
			"byteLength":1620,
			"byteOffset":3408,
			"target":34962
		},
		{
			"buffer":0,
			"byteLength":1620,
			"byteOffset":5028,
			"target":34962
		},
		{
			"buffer":0,
			"byteLength":1080,
			"byteOffset":6648,
			"target":34962
		},
		{
			"buffer":0,
			"byteLength":2160,
			"byteOffset":7728,
			"target":34962
		},
		{
			"buffer":0,
			"byteLength":960,
			"byteOffset":9888,
			"target":34963
		},
		{
			"buffer":0,
			"byteLength":3264,
			"byteOffset":10848,
			"target":34962
		},
		{
			"buffer":0,
			"byteLength":3264,
			"byteOffset":14112,
			"target":34962
		},
		{
			"buffer":0,
			"byteLength":2176,
			"byteOffset":17376,
			"target":34962
		},
		{
			"buffer":0,
			"byteLength":4352,
			"byteOffset":19552,
			"target":34962
		},
		{
			"buffer":0,
			"byteLength":2496,
			"byteOffset":23904,
			"target":34963
		},
		{
			"buffer":0,
			"byteLength":960,
			"byteOffset":26400,
			"target":34962
		},
		{
			"buffer":0,
			"byteLength":960,
			"byteOffset":27360,
			"target":34962
		},
		{
			"buffer":0,
			"byteLength":640,
			"byteOffset":28320,
			"target":34962
		},
		{
			"buffer":0,
			"byteLength":1280,
			"byteOffset":28960,
			"target":34962
		},
		{
			"buffer":0,
			"byteLength":528,
			"byteOffset":30240,
			"target":34963
		},
		{
			"buffer":0,
			"byteLength":4272,
			"byteOffset":30768,
			"target":34962
		},
		{
			"buffer":0,
			"byteLength":4272,
			"byteOffset":35040,
			"target":34962
		},
		{
			"buffer":0,
			"byteLength":2848,
			"byteOffset":39312,
			"target":34962
		},
		{
			"buffer":0,
			"byteLength":5696,
			"byteOffset":42160,
			"target":34962
		},
		{
			"buffer":0,
			"byteLength":2844,
			"byteOffset":47856,
			"target":34963
		},
		{
			"buffer":0,
			"byteLength":648,
			"byteOffset":50700,
			"target":34962
		},
		{
			"buffer":0,
			"byteLength":648,
			"byteOffset":51348,
			"target":34962
		},
		{
			"buffer":0,
			"byteLength":432,
			"byteOffset":51996,
			"target":34962
		},
		{
			"buffer":0,
			"byteLength":864,
			"byteOffset":52428,
			"target":34962
		},
		{
			"buffer":0,
			"byteLength":288,
			"byteOffset":53292,
			"target":34963
		}
	],
	"samplers":[
		{
			"magFilter":9729,
			"minFilter":9987
		}
	],
	"buffers":[
		{
			"byteLength":53580,
			"uri":"sandalye_katlanabilir-53af9279c25f92ab5ba1f501fc596940.bin"
		}
	]
}
